<?xml version="1.0" encoding="UTF-8" standalone="no"?>
<svg
   xmlns:dc="http://purl.org/dc/elements/1.1/"
   xmlns:cc="http://creativecommons.org/ns#"
   xmlns:rdf="http://www.w3.org/1999/02/22-rdf-syntax-ns#"
   xmlns:svg="http://www.w3.org/2000/svg"
   xmlns="http://www.w3.org/2000/svg"
   xmlns:sodipodi="http://sodipodi.sourceforge.net/DTD/sodipodi-0.dtd"
   xmlns:inkscape="http://www.inkscape.org/namespaces/inkscape"
   width="310.2215"
   height="317.11508"
   version="1.1"
   id="svg334"
   sodipodi:docname="2022-03-13_11-02_2_ph3.svg"
   inkscape:version="0.92.5 (2060ec1f9f, 2020-04-08)">
  <metadata
     id="metadata340">
    <rdf:RDF>
      <cc:Work
         rdf:about="">
        <dc:format>image/svg+xml</dc:format>
        <dc:type
           rdf:resource="http://purl.org/dc/dcmitype/StillImage" />
        <dc:title></dc:title>
      </cc:Work>
    </rdf:RDF>
  </metadata>
  <defs
     id="defs338" />
  <sodipodi:namedview
     pagecolor="#ffffff"
     bordercolor="#666666"
     borderopacity="1"
     objecttolerance="10"
     gridtolerance="10"
     guidetolerance="10"
     inkscape:pageopacity="0"
     inkscape:pageshadow="2"
     inkscape:window-width="1848"
     inkscape:window-height="1016"
     id="namedview336"
     showgrid="false"
     inkscape:zoom="1.171068"
     inkscape:cx="256.01035"
     inkscape:cy="115.45414"
     inkscape:window-x="72"
     inkscape:window-y="27"
     inkscape:window-maximized="1"
     inkscape:current-layer="svg334"
     fit-margin-top="0.2"
     fit-margin-left="0"
     fit-margin-right="0"
     fit-margin-bottom="0"
     showguides="true"
     inkscape:guide-bbox="true">
    <sodipodi:guide
       position="309.95876,204.26384"
       orientation="0,1"
       id="guide855"
       inkscape:locked="false" />
    <sodipodi:guide
       position="155.11075,478.47875"
       orientation="1,0"
       id="guide859"
       inkscape:locked="false" />
  </sodipodi:namedview>
  <g
     id="g873"
     transform="translate(-0.05443867,0.00657616)">
    <path
       sodipodi:nodetypes="zssszcszzscszccszccsz"
       id="path8"
       d="M 155.06566,0.19342544 C 139.84283,0.18271608 123.87384,53.775824 118.51644,66.505044 c -3.46701,8.237635 -6.08537,18.079654 -12.294,24.776 -5.52837,5.962654 -14.81207,6.162077 -22.32,7.379 -22.015565,3.568396 -83.83945449,-5.452576 -83.848,13.967326 -0.0085455,19.4199 41.217071,42.79444 56.848,55.79867 7.181,5.968 17.563981,11.18584 17.397,21.079 -0.127905,7.57801 0.264514,6.22378 -4.019,23 -4.283514,16.77622 -25.742218,76.6503 -9.335,81.972 16.407218,5.3217 56.12784,-26.54271 69.957,-35.011 7.47418,-4.57681 15.82622,-10.81588 24.19945,-11.04574 8.054,0.198 17.25252,6.61264 23.80055,10.90674 16.60375,10.88849 50.14949,42.64533 70.522,35.24 20.37251,-7.40533 -5.79817,-61.06397 -9.692,-82.062 -1.179,-6.397 -4.945,-14.622 -4.523,-21 0.522,-7.897 7.47376,-13.37234 12.694,-18.869 17.86007,-18.8058 62.3085,-45.76725 62.37244,-60.20084 0.0639,-14.433586 -53.4327,-12.645397 -68.37344,-12.926156 -10.947,-0.148 -26.843,0.653996 -35.96,-6.479 -7.228,-5.654 -10.36014,-16.330715 -13.735,-24.525 C 184.61228,50.063717 170.28848,0.2041348 155.06566,0.19342544 Z"
       style="fill:#ffe735;stroke:none"
       inkscape:connector-curvature="0" />
    <path
       sodipodi:nodetypes="cccccssc"
       inkscape:connector-curvature="0"
       id="path12"
       d="m 159.95944,20.476044 c -1.399,11.127 0.0992,22.888 1.57617,34 1.097,8.256 1.70084,16.695 2.58984,25 0.774,7.233 0.67277,15.88439 5.63477,21.775386 5.632,6.688 18.2577,4.7317 20.9707,-3.779296 0.88807,-6.47886 0.89194,-13.053303 -0.97201,-19.231135 -3.46307,-11.477959 -7.82923,-23.374545 -11.78583,-33.866183 -2.73265,-7.24613 -8.52264,-24.807772 -18.01364,-23.898772 z"
       style="fill:#fcf699;stroke:none" />
    <path
       id="path851"
       d="m 247.83398,36.158203 c -1.03783,-0.188924 -1.99687,-0.160437 -2.82812,0.132813 -3.668,1.294 -5.72578,6.126781 -7.67578,9.175781 -5.702,8.92 -12.64847,18.324062 -16.85547,28.039062 -1.945,4.491 -0.0103,8.745469 5.42969,7.480469 10,-2.324 20.37,-12.335781 29,-17.800781 3.15,-1.994 7.88489,-3.977438 9.21289,-7.773438 2.09212,-5.980625 -9.01834,-17.931439 -16.28321,-19.253906 z"
       style="fill:#ffc803;stroke:none"
       inkscape:connector-curvature="0" />
    <path
       id="path18"
       d="m 64.177734,36.039062 c -0.974578,-0.227609 -2.05739,-0.186234 -3.27539,0.228516 -3.189,1.085 -5.676047,3.940188 -7.998047,6.242188 -15.829,15.691 3.998047,21.823531 16.998047,30.269531 4.344,2.823 12.141562,10.353515 17.851562,8.103515 5.524,-2.176 0.902657,-9.204953 -0.902344,-12.376953 -5.034999,-8.85 -10.806343,-17.33 -16.152343,-26 -1.65375,-2.6835 -3.59775,-5.783968 -6.521485,-6.466797 z"
       style="fill:#ffc803;stroke:none"
       inkscape:connector-curvature="0" />
    <path
       id="path166"
       d="m 282.90244,120.11804 c -11.213,2.667 -22.263,8.337 -33,12.492 -10.872,4.207 -23.959,7.37 -32.96,15.158 -10.557,9.136 -9.198,29.343 7.96,27.563 7.796,-0.809 12.997,-5.977 19.015,-10.405 10.478,-7.711 20.959,-15.713 30.985,-24.008 4.9,-4.054 12.019,-7.91 15.381,-13.416 3.494,-5.721 -2.405,-8.568 -7.381,-7.384 z"
       style="fill:#ffc803;stroke:none"
       inkscape:connector-curvature="0" />
    <path
       id="path176"
       d="m 50.85844,197.36304 c -10.037,-1.526 -21.759,0.142 -31.956,0.142 -3.66,0 -9.381,-1.015 -12.566,1.179 -5.354,3.687 -0.066,24.922 5.747,26.498 4.17,1.131 8.356,-1.924 11.823,-3.793 8.986,-4.843 19.687,-8.606 27.886,-14.698 3.658,-2.717 4.762,-8.462 -0.934,-9.328 z"
       style="fill:#ffc803;stroke:none"
       inkscape:connector-curvature="0" />
    <path
       id="path184"
       d="m 256.50644,198.53304 c -3.828,3.064 0.648,7.795 3.415,9.407 9.294,5.414 19.353,9.961 28.891,14.974 3.381,1.777 8.015,4.133 11.437,0.988 2.513,-2.309 2.619,-6.303 3.398,-9.397 1.023,-4.06 3.934,-10.621 1.227,-14.566 -3.992,-5.82 -25.489,-2.434 -31.972,-2.434 -4.103,0 -13.029,-1.668 -16.396,1.028 z"
       style="fill:#ffc803;stroke:none"
       inkscape:connector-curvature="0" />
    <path
       sodipodi:nodetypes="csczcsc"
       id="path282"
       d="m 155.05931,266.43604 c -6.60581,-9.9e-4 -7.21501,15.25529 -8.50164,20.61614 -1.36637,5.69315 -7.88623,23.80386 -2.05223,28.42486 2.94,2.329 7.40537,1.48086 10.55387,1.48086 3.1485,0 8.79718,-0.12385 11.47818,-0.92181 4.729,-1.408 0.33639,-21.97379 -1.67656,-28.64546 -1.79525,-5.95014 -1.39239,-20.69134 -9.80162,-20.95459 z"
       style="fill:#ffc803;stroke:none"
       inkscape:connector-curvature="0" />
  </g>
</svg>
